<mxfile host="65bd71144e">
    <diagram id="obSjK3V-tUAjCDn29TE3" name="ページ1">
        <mxGraphModel dx="1216" dy="628" grid="1" gridSize="10" guides="1" tooltips="1" connect="1" arrows="1" fold="1" page="1" pageScale="1" pageWidth="827" pageHeight="1169" math="0" shadow="0">
            <root>
                <mxCell id="0"/>
                <mxCell id="1" parent="0"/>
                <mxCell id="9" value="" style="rounded=0;whiteSpace=wrap;html=1;fillColor=#D9D9D9;fillStyle=solid;strokeColor=none;" vertex="1" parent="1">
                    <mxGeometry x="10" y="10" width="800" height="370" as="geometry"/>
                </mxCell>
                <mxCell id="8" value="" style="rounded=0;whiteSpace=wrap;html=1;fillStyle=cross-hatch;strokeColor=none;fillColor=#FFFFFF;gradientColor=none;" vertex="1" parent="1">
                    <mxGeometry x="10" y="10" width="800" height="370" as="geometry"/>
                </mxCell>
                <mxCell id="2" value="" style="rounded=1;whiteSpace=wrap;html=1;fillColor=#fff2cc;strokeColor=#d6b656;" vertex="1" parent="1">
                    <mxGeometry x="114" y="80" width="200" height="100" as="geometry"/>
                </mxCell>
                <mxCell id="3" value="" style="rounded=1;whiteSpace=wrap;html=1;fillColor=#fff2cc;strokeColor=#d6b656;" vertex="1" parent="1">
                    <mxGeometry x="314" y="80" width="200" height="100" as="geometry"/>
                </mxCell>
                <mxCell id="4" value="" style="rounded=1;whiteSpace=wrap;html=1;fillColor=#fff2cc;strokeColor=#d6b656;" vertex="1" parent="1">
                    <mxGeometry x="514" y="80" width="200" height="100" as="geometry"/>
                </mxCell>
                <mxCell id="5" value="" style="rounded=1;whiteSpace=wrap;html=1;fillColor=#fff2cc;strokeColor=#d6b656;" vertex="1" parent="1">
                    <mxGeometry x="114" y="180" width="200" height="100" as="geometry"/>
                </mxCell>
                <mxCell id="6" value="" style="rounded=1;whiteSpace=wrap;html=1;fillColor=#fff2cc;strokeColor=#d6b656;" vertex="1" parent="1">
                    <mxGeometry x="314" y="180" width="200" height="100" as="geometry"/>
                </mxCell>
                <mxCell id="7" value="" style="rounded=1;whiteSpace=wrap;html=1;fillColor=#fff2cc;strokeColor=#d6b656;" vertex="1" parent="1">
                    <mxGeometry x="514" y="180" width="200" height="100" as="geometry"/>
                </mxCell>
                <mxCell id="10" value="&lt;font style=&quot;font-size: 27px;&quot; face=&quot;Comic Sans MS&quot;&gt;1&lt;/font&gt;" style="ellipse;whiteSpace=wrap;html=1;aspect=fixed;fillStyle=solid;" vertex="1" parent="1">
                    <mxGeometry x="187" y="103" width="54" height="54" as="geometry"/>
                </mxCell>
                <mxCell id="11" value="&lt;font face=&quot;Comic Sans MS&quot; style=&quot;font-size: 27px;&quot;&gt;2&lt;/font&gt;" style="ellipse;whiteSpace=wrap;html=1;aspect=fixed;fillStyle=solid;" vertex="1" parent="1">
                    <mxGeometry x="387" y="103" width="54" height="54" as="geometry"/>
                </mxCell>
                <mxCell id="17" value="&lt;font face=&quot;Comic Sans MS&quot; style=&quot;font-size: 27px;&quot;&gt;3&lt;/font&gt;" style="ellipse;whiteSpace=wrap;html=1;aspect=fixed;fillStyle=solid;" vertex="1" parent="1">
                    <mxGeometry x="587" y="103" width="54" height="54" as="geometry"/>
                </mxCell>
                <mxCell id="18" value="&lt;font face=&quot;Comic Sans MS&quot; style=&quot;font-size: 27px;&quot;&gt;4&lt;/font&gt;" style="ellipse;whiteSpace=wrap;html=1;aspect=fixed;fillStyle=solid;" vertex="1" parent="1">
                    <mxGeometry x="187" y="203" width="54" height="54" as="geometry"/>
                </mxCell>
                <mxCell id="19" value="&lt;font face=&quot;Comic Sans MS&quot; style=&quot;font-size: 27px;&quot;&gt;5&lt;/font&gt;" style="ellipse;whiteSpace=wrap;html=1;aspect=fixed;fillStyle=solid;" vertex="1" parent="1">
                    <mxGeometry x="387" y="203" width="54" height="54" as="geometry"/>
                </mxCell>
                <mxCell id="20" value="&lt;font face=&quot;Comic Sans MS&quot; style=&quot;font-size: 27px;&quot;&gt;6&lt;/font&gt;" style="ellipse;whiteSpace=wrap;html=1;aspect=fixed;fillStyle=solid;" vertex="1" parent="1">
                    <mxGeometry x="587" y="203" width="54" height="54" as="geometry"/>
                </mxCell>
            </root>
        </mxGraphModel>
    </diagram>
</mxfile>